<?xml version="1.0" encoding="utf-8"?>
<!-- Generator: Adobe Illustrator 21.0.0, SVG Export Plug-In . SVG Version: 6.00 Build 0)  -->
<svg version="1.1" id="Слой_1" xmlns="http://www.w3.org/2000/svg" xmlns:xlink="http://www.w3.org/1999/xlink" x="0px" y="0px"
	 viewBox="0 0 50 50" style="enable-background:new 0 0 50 50;" xml:space="preserve">
<style type="text/css">
	.st0{fill:#FFFFFF;}
	.st1{fill:#020202;}
</style>
<g transform="translate(58.88,58.88) scale(0.54,0.54)">
	<g>
		<path id="shape" class="st0" d="M-101.2-16.4c-4.3,0-7.9-3.5-7.9-7.9v-76.9c0-4.3,3.5-7.9,7.9-7.9h76.9c4.3,0,7.9,3.5,7.9,7.9
			v76.9c0,4.3-3.5,7.9-7.9,7.9H-101.2z"/>
	</g>
	<g>
		<g transform="translate(-0.00672,-88.04977) scale(5.12,5.12)">
			<path d="M-16.8-2.8c-0.1,0-0.2,0.1-0.2,0.2v7c0,0.8,0.4,1.3,0.9,1.5c0.4,0.2,0.8,0.2,0.8,0.2h6v0c0.1,0,0.2,0,0.2,0
				s0.4,0,0.8-0.2c0.4-0.2,0.7-0.7,0.7-1.4c0,0,0,0,0,0c0,0,0,0,0,0c0,0,0,0,0,0v-4.9c0,0,0,0,0,0c0,0,0-0.2-0.1-0.5
				c-0.1-0.2-0.4-0.5-0.8-0.5v0h-1.8v0.4h1.1c0,0,0,0.1-0.1,0.1c-0.1,0.2-0.1,0.5-0.1,0.5v4.7c0,0.1,0,0.1,0.1,0.2
				c0.1,0,0.1,0,0.2,0c0.1,0,0.1-0.1,0.1-0.2v-4.7c0,0,0-0.1,0.1-0.3C-8.9-0.9-8.8-1-8.5-1C-8.2-1-8.1-0.9-8-0.8
				C-8-0.6-7.9-0.5-7.9-0.5h0v4.9c0,0.7-0.3,1-0.6,1.1c-0.3,0.2-0.6,0.2-0.6,0.2s-0.3,0-0.7-0.2c-0.3-0.2-0.6-0.5-0.6-1.1v-7
				c0-0.1-0.1-0.2-0.2-0.2H-16.8C-16.8-2.8-16.8-2.8-16.8-2.8z M-16.6-2.4h5.8v6.8c0,0.6,0.3,1.1,0.6,1.3h-5.1c0,0,0,0,0,0
				c0,0-0.1,0-0.2,0c-0.1,0-0.1,0-0.2,0c-0.1,0-0.2-0.1-0.2-0.1c0,0-0.1,0-0.1-0.1c-0.3-0.2-0.5-0.5-0.5-1.1V-2.4z M-15.8-1.2
				c-0.1,0-0.2,0.1-0.2,0.2c0,0.1,0.1,0.2,0.2,0.2h3.9c0.1,0,0.1,0,0.2-0.1c0-0.1,0-0.1,0-0.2c0-0.1-0.1-0.1-0.2-0.1L-15.8-1.2
				C-15.7-1.2-15.7-1.2-15.8-1.2C-15.8-1.2-15.8-1.2-15.8-1.2C-15.8-1.2-15.8-1.2-15.8-1.2L-15.8-1.2z M-15.8-0.4
				c-0.1,0-0.2,0.1-0.2,0.2c0,0.1,0.1,0.2,0.2,0.2h3.9c0.1,0,0.1,0,0.2-0.1c0-0.1,0-0.1,0-0.2c0-0.1-0.1-0.1-0.2-0.1L-15.8-0.4
				C-15.7-0.4-15.7-0.4-15.8-0.4C-15.8-0.4-15.8-0.4-15.8-0.4C-15.8-0.4-15.8-0.4-15.8-0.4L-15.8-0.4z M-15.7,1.2
				c-0.1,0-0.2,0.1-0.2,0.2c0,0.1,0.1,0.2,0.2,0.2h1.3c0.1,0,0.1,0,0.2-0.1c0-0.1,0-0.1,0-0.2c0-0.1-0.1-0.1-0.2-0.1L-15.7,1.2
				C-15.6,1.2-15.6,1.2-15.7,1.2C-15.7,1.2-15.7,1.2-15.7,1.2C-15.7,1.2-15.7,1.2-15.7,1.2L-15.7,1.2z M-13.4,1.2
				c-0.1,0-0.2,0.1-0.2,0.2c0,0.1,0.1,0.2,0.2,0.2h1.5c0.1,0,0.1,0,0.2-0.1c0-0.1,0-0.1,0-0.2c0-0.1-0.1-0.1-0.2-0.1L-13.4,1.2
				C-13.4,1.2-13.4,1.2-13.4,1.2C-13.4,1.2-13.4,1.2-13.4,1.2C-13.4,1.2-13.4,1.2-13.4,1.2L-13.4,1.2z M-15.7,2
				c-0.1,0-0.2,0.1-0.2,0.2c0,0.1,0.1,0.2,0.2,0.2h1.3c0.1,0,0.1,0,0.2-0.1c0-0.1,0-0.1,0-0.2c0-0.1-0.1-0.1-0.2-0.1L-15.7,2
				C-15.6,2-15.6,2-15.7,2C-15.7,2-15.7,2-15.7,2C-15.7,2-15.7,2-15.7,2L-15.7,2z M-13.4,2c-0.1,0-0.2,0.1-0.2,0.2
				c0,0.1,0.1,0.2,0.2,0.2h1.5c0.1,0,0.1,0,0.2-0.1c0-0.1,0-0.1,0-0.2c0-0.1-0.1-0.1-0.2-0.1L-13.4,2C-13.4,2-13.4,2-13.4,2
				C-13.4,2-13.4,2-13.4,2C-13.4,2-13.4,2-13.4,2L-13.4,2z M-13.4,2.7c-0.1,0-0.2,0.1-0.2,0.2c0,0.1,0.1,0.2,0.2,0.2h1.5
				c0.1,0,0.1,0,0.2-0.1c0-0.1,0-0.1,0-0.2c0-0.1-0.1-0.1-0.2-0.1L-13.4,2.7C-13.4,2.7-13.4,2.7-13.4,2.7
				C-13.4,2.7-13.4,2.7-13.4,2.7L-13.4,2.7z M-15.7,2.8c-0.1,0-0.2,0.1-0.2,0.2c0,0.1,0.1,0.2,0.2,0.2h1.3c0.1,0,0.1,0,0.2-0.1
				c0-0.1,0-0.1,0-0.2c0-0.1-0.1-0.1-0.2-0.1L-15.7,2.8C-15.6,2.8-15.6,2.8-15.7,2.8C-15.7,2.8-15.7,2.8-15.7,2.8
				C-15.7,2.8-15.7,2.8-15.7,2.8z M-13.4,3.5c-0.1,0-0.2,0.1-0.2,0.2c0,0.1,0.1,0.2,0.2,0.2h1.5c0.1,0,0.1,0,0.2-0.1
				c0-0.1,0-0.1,0-0.2c0-0.1-0.1-0.1-0.2-0.1L-13.4,3.5C-13.4,3.5-13.4,3.5-13.4,3.5C-13.4,3.5-13.4,3.5-13.4,3.5L-13.4,3.5z
				 M-15.7,3.5c-0.1,0-0.2,0.1-0.2,0.2c0,0.1,0.1,0.2,0.2,0.2h1.3c0.1,0,0.1,0,0.2-0.1c0-0.1,0-0.1,0-0.2c0-0.1-0.1-0.1-0.2-0.1
				L-15.7,3.5C-15.6,3.5-15.6,3.5-15.7,3.5C-15.7,3.5-15.7,3.5-15.7,3.5C-15.7,3.5-15.7,3.5-15.7,3.5L-15.7,3.5z M-13.4,4.2
				c-0.1,0-0.2,0.1-0.2,0.2c0,0.1,0.1,0.2,0.2,0.2h1.5c0.1,0,0.1,0,0.2-0.1c0-0.1,0-0.1,0-0.2c0-0.1-0.1-0.1-0.2-0.1L-13.4,4.2
				C-13.4,4.2-13.4,4.2-13.4,4.2C-13.4,4.2-13.4,4.2-13.4,4.2C-13.4,4.2-13.4,4.2-13.4,4.2L-13.4,4.2z M-15.7,4.3
				c-0.1,0-0.2,0.1-0.2,0.2c0,0.1,0.1,0.2,0.2,0.2h1.3c0.1,0,0.1,0,0.2-0.1c0-0.1,0-0.1,0-0.2c0-0.1-0.1-0.1-0.2-0.1L-15.7,4.3
				C-15.6,4.3-15.6,4.3-15.7,4.3C-15.7,4.3-15.7,4.3-15.7,4.3C-15.7,4.3-15.7,4.3-15.7,4.3L-15.7,4.3z"/>
		</g>
	</g>
	<g>
		<g>
			<path class="st1" d="M-84.9-25l-10-14.1l-1.6-3h-0.1l0.3,3v13.7h-2.3v-21.3h1.3l10.1,14l1.6,2.9h0.2l-0.3-2.9v-13.7h2.3V-25
				H-84.9z M-78.5-25.3v-21h11.4v2.2H-76v6.9h8.2v2.2H-76v7.5h9.1v2.2L-78.5-25.3z M-62.1-46.3l3.8,14.1l0.5,3.5h0l0.5-3.5l4.3-14
				h1.2l4.3,14.1l0.5,3.5h0l0.5-3.5l3.5-14h2.4L-46.2-25h-1.4l-4.3-14.1l-0.5-3.2h-0.2l-0.5,3.2l-4.3,14h-1.4l-6-21.3L-62.1-46.3z
				 M-28.1-30.7L-28.1-30.7c0-0.8-0.3-1.5-0.8-2.1c-0.5-0.5-1.1-1-1.9-1.4c-0.8-0.4-1.6-0.8-2.4-1.2c-0.9-0.4-1.7-0.8-2.4-1.3
				c-0.7-0.5-1.4-1.1-1.9-1.9s-0.8-1.7-0.8-2.9l0,0c0-1.6,0.6-2.9,1.7-3.9c1.1-1,2.8-1.4,4.9-1.4l0,0c1.2,0,2.3,0.1,3.3,0.3
				c1,0.2,1.8,0.4,2.3,0.7l0,0l-0.7,2.2c-0.5-0.2-1.1-0.4-2-0.6c-0.9-0.2-1.9-0.3-3-0.3l0,0c-1.3,0-2.3,0.3-3,0.9
				c-0.7,0.6-1,1.3-1,2.1l0,0c0,0.8,0.3,1.4,0.8,1.9c0.5,0.5,1.1,1,1.9,1.4c0.7,0.4,1.6,0.8,2.4,1.2c0.9,0.4,1.7,0.9,2.4,1.4
				c0.8,0.5,1.4,1.2,1.9,1.9c0.5,0.7,0.7,1.7,0.7,2.8l0,0c0,0.9-0.2,1.7-0.5,2.4c-0.3,0.7-0.8,1.3-1.4,1.9c-0.6,0.5-1.4,0.9-2.2,1.2
				c-0.9,0.3-1.9,0.4-3,0.4l0,0c-1.5,0-2.7-0.1-3.7-0.3c-1-0.2-1.7-0.5-2.3-0.8l0,0l0.8-2.2c0.5,0.3,1.1,0.5,2,0.8
				c0.9,0.3,1.9,0.4,3,0.4l0,0c0.7,0,1.3-0.1,1.9-0.2c0.6-0.1,1.1-0.3,1.5-0.6c0.4-0.3,0.8-0.7,1-1.1
				C-28.2-29.6-28.1-30.1-28.1-30.7z"/>
		</g>
	</g>
</g>
</svg>
