<?xml version="1.0" encoding="utf-8"?>
<!-- Generator: Adobe Illustrator 21.0.0, SVG Export Plug-In . SVG Version: 6.00 Build 0)  -->
<svg version="1.1" id="Слой_1" xmlns="http://www.w3.org/2000/svg" xmlns:xlink="http://www.w3.org/1999/xlink" x="0px" y="0px"
	 viewBox="0 0 48 48" style="enable-background:new 0 0 48 48;" xml:space="preserve">
<style type="text/css">
	.st0{fill:#FFFFFF;}
</style>
<g transform="">
	<g>
		<path id="shape" class="st0" d="M4.1,48C1.8,48,0,46.2,0,43.9V4.1C0,1.8,1.8,0,4.1,0h39.8C46.2,0,48,1.8,48,4.1v39.8
			c0,2.3-1.8,4.1-4.1,4.1H4.1z"/>
	</g>
	<g>
		<g transform="scale(5.33333,5.33333)">
			<path d="M3.8,1.1c-1.5,0-2.7,1.2-2.7,2.7s1.2,2.7,2.7,2.7c0.6,0,1.2-0.2,1.7-0.6l1.8,1.8c0.1,0.1,0.2,0.1,0.3,0.1
				s0.2-0.1,0.2-0.2c0-0.1,0-0.2-0.1-0.3L6,5.6c0.4-0.5,0.6-1.1,0.6-1.7C6.6,2.3,5.3,1.1,3.8,1.1z M3.8,1.7C5,1.7,6,2.6,6,3.8
				C6,4.4,5.8,5,5.4,5.3c0,0,0,0-0.1,0.1C5,5.8,4.4,6,3.8,6C2.6,6,1.7,5,1.7,3.8S2.6,1.7,3.8,1.7z"/>
		</g>
	</g>
</g>
</svg>
